<svg xmlns="http://www.w3.org/2000/svg" xmlns:xlink="http://www.w3.org/1999/xlink" version="1.1" width="1000" height="1000" viewBox="0 0 1000 1000" xml:space="preserve">
<desc>Created with Fabric.js 3.5.0</desc>
<defs>
</defs>
<rect x="0" y="0" width="100%" height="100%" fill="rgba(255,255,255,0.23)"/>
<g transform="matrix(1.9592 0 0 1.5346 501.5552 392.8576)" id="882208">
<g style="" vector-effect="non-scaling-stroke">
		<g transform="matrix(1 0 0 1 -118.5612 110.6788)" id="_1">
<filter id="SVGID_728" y="-49.4%" height="198.8%" x="-43.400000000000006%" width="186.8%">
	<feGaussianBlur in="SourceAlpha" stdDeviation="19.5"/>
	<feOffset dx="0" dy="10" result="oBlur"/>
	<feFlood flood-color="rgb(0,0,0)" flood-opacity="1"/>
	<feComposite in2="oBlur" operator="in"/>
	<feMerge>
		<feMergeNode/>
		<feMergeNode in="SourceGraphic"/>
	</feMerge>
</filter>
<path style="stroke: none; stroke-width: 1; stroke-dasharray: none; stroke-linecap: butt; stroke-dashoffset: 0; stroke-linejoin: miter; stroke-miterlimit: 4; is-custom-font: none; font-file-url: none; fill: rgb(241,228,92); fill-opacity: 0.98; fill-rule: nonzero; opacity: 1;filter: url(#SVGID_728);" transform=" translate(-137.4388, -366.6788)" d="M 137.45 450 a 83.32 83.32 0 1 1 83.31 -83.31 A 83.41 83.41 0 0 1 137.45 450 Z m 0 -136.63 a 53.32 53.32 0 1 0 53.31 53.32 A 53.38 53.38 0 0 0 137.45 313.37 Z" stroke-linecap="round"/>
</g>
		<g transform="matrix(1 0 0 1 118.8688 55.6788)" id="_1">
<filter id="SVGID_729" y="-49.4%" height="198.8%" x="-43.400000000000006%" width="186.8%">
	<feGaussianBlur in="SourceAlpha" stdDeviation="19.5"/>
	<feOffset dx="0" dy="10" result="oBlur"/>
	<feFlood flood-color="rgb(0,0,0)" flood-opacity="1"/>
	<feComposite in2="oBlur" operator="in"/>
	<feMerge>
		<feMergeNode/>
		<feMergeNode in="SourceGraphic"/>
	</feMerge>
</filter>
<path style="stroke: none; stroke-width: 1; stroke-dasharray: none; stroke-linecap: butt; stroke-dashoffset: 0; stroke-linejoin: miter; stroke-miterlimit: 4; is-custom-font: none; font-file-url: none; fill: rgb(241,228,92); fill-opacity: 0.98; fill-rule: nonzero; opacity: 1;filter: url(#SVGID_729);" transform=" translate(-374.8688, -311.6788)" d="M 374.88 395 a 83.32 83.32 0 1 1 83.31 -83.32 A 83.41 83.41 0 0 1 374.88 395 Z m 0 -136.63 a 53.32 53.32 0 1 0 53.31 53.31 A 53.37 53.37 0 0 0 374.88 258.37 Z" stroke-linecap="round"/>
</g>
		<g transform="matrix(1 0 0 1 68.475 -39.9)" id="_1">
<filter id="SVGID_730" y="-34.8%" height="169.6%" x="-34.58%" width="169.16%">
	<feGaussianBlur in="SourceAlpha" stdDeviation="19.5"/>
	<feOffset dx="0" dy="10" result="oBlur"/>
	<feFlood flood-color="rgb(0,0,0)" flood-opacity="1"/>
	<feComposite in2="oBlur" operator="in"/>
	<feMerge>
		<feMergeNode/>
		<feMergeNode in="SourceGraphic"/>
	</feMerge>
</filter>
<path style="stroke: none; stroke-width: 1; stroke-dasharray: none; stroke-linecap: butt; stroke-dashoffset: 0; stroke-linejoin: miter; stroke-miterlimit: 4; is-custom-font: none; font-file-url: none; fill: rgb(241,228,92); fill-opacity: 0.98; fill-rule: nonzero; opacity: 1;filter: url(#SVGID_730);" transform=" translate(-324.475, -216.1001)" d="M 205.76 381.69 a 15 15 0 0 1 -15 -15 V 119.3 a 15 15 0 0 1 11.69 -14.63 L 439.88 50.88 a 15 15 0 0 1 18.31 14.63 V 311.68 a 15 15 0 0 1 -30 0 V 84.29 l -207.43 47 V 366.69 A 15 15 0 0 1 205.76 381.69 Z" stroke-linecap="round"/>
</g>
		<g transform="matrix(1 0 0 1 68.4573 -95.282)" id="_1">
<filter id="SVGID_731" y="-78.47%" height="256.94%" x="-34.58%" width="169.16%">
	<feGaussianBlur in="SourceAlpha" stdDeviation="19.5"/>
	<feOffset dx="0" dy="10" result="oBlur"/>
	<feFlood flood-color="rgb(0,0,0)" flood-opacity="1"/>
	<feComposite in2="oBlur" operator="in"/>
	<feMerge>
		<feMergeNode/>
		<feMergeNode in="SourceGraphic"/>
	</feMerge>
</filter>
<path style="stroke: none; stroke-width: 1; stroke-dasharray: none; stroke-linecap: butt; stroke-dashoffset: 0; stroke-linejoin: miter; stroke-miterlimit: 4; is-custom-font: none; font-file-url: none; fill: rgb(241,228,92); fill-opacity: 0.98; fill-rule: nonzero; opacity: 1;filter: url(#SVGID_731);" transform=" translate(-324.4573, -160.7179)" d="M 205.75 202.62 a 15 15 0 0 1 -3.3 -29.64 l 237.43 -53.79 a 15 15 0 0 1 6.63 29.26 L 209.08 202.24 A 14.73 14.73 0 0 1 205.75 202.62 Z" stroke-linecap="round"/>
</g>
</g>
</g>
<g transform="matrix(1 0 0 1 530.4351 777.027)" style="filter: url(#SVGID_732);" id="529782">
<filter id="SVGID_732" y="-29.92%" height="159.84%" x="-24.990000000000002%" width="149.98000000000002%">
	<feGaussianBlur in="SourceAlpha" stdDeviation="17"/>
	<feOffset dx="10" dy="10" result="oBlur"/>
	<feFlood flood-color="rgb(0,0,0)" flood-opacity="1"/>
	<feComposite in2="oBlur" operator="in"/>
	<feMerge>
		<feMergeNode/>
		<feMergeNode in="SourceGraphic"/>
	</feMerge>
</filter>
		
<path xml:space="preserve" font-family="AttackGraffiti ZVJPZ" font-size="187" style="stroke: none; stroke-width: 0; stroke-dasharray: none; stroke-linecap: butt; stroke-dashoffset: 0; stroke-linejoin: miter; stroke-miterlimit: 4; is-custom-font: true; font-file-url: https://cdn.pixelied.com/user-assets/fonts/f9dcbca2-3c70-47b6-a73e-64672bf11c84.otf; fill: rgb(207,198,68); fill-rule: nonzero; opacity: 1; white-space: pre;" d="M-276.76 123.91C-276.76 119.61-279.56 115.69-283.30 114.19C-292.65 110.64-305.56 107.83-320.14 106.15C-338.84 76.60-360.91 51.17-379.24 51.17C-383.16 51.17-386.90 53.23-390.64 56.97C-403.36 58.84-414.77 80.72-421.12 111.01C-436.27 116.06-447.12 124.66-447.12 139.62L-447.12 140.74C-447.12 146.35-442.44 151.03-436.83 151.03C-430.10 151.03-428.23 146.17-425.61 141.12C-426.17 148.22-426.36 155.70-426.36 163.18C-426.36 168.79-421.69 173.47-416.07 173.47C-411.77 173.47-408.97 171.22-407.10 167.86L-406.16 167.86C-391.20 167.86-394.01 141.68-392.70 127.47C-391.58 127.28-390.64 127.28-389.52 127.09C-389.52 138.87-389.71 150.28-389.71 162.25C-389.71 164.31-389.52 169.73-387.84 169.73C-385.41 169.73-385.22 166.55-385.22 165.05C-385.22 152.15-386.53 139.62-386.90 126.91C-375.68 125.97-363.71 125.60-352.31 125.60C-348.94 125.60-345.58 125.78-342.40 125.78C-332.86 144.67-324.07 165.24-318.46 178.89C-317.71 180.57-316.78 182.07-315.28 183.19L-315.28 194.60C-315.28 196.66-315.09 202.08-313.41 202.08C-310.98 202.08-310.79 198.90-310.79 197.40C-310.79 193.29-310.98 189.18-311.17 185.06C-310.42 185.25-309.67 185.25-308.92 185.25C-305.00 185.25-301.44 183.01-299.76 179.64L-299.01 179.64C-293.40 179.64-288.73 174.96-288.73 169.35C-288.73 168.05-288.91 166.74-289.48 165.43C-293.96 154.58-299.76 142.05-306.68 129.15C-300.70 130.27-295.46 131.95-290.78 133.64C-289.66 134.01-288.35 134.20-287.04 134.20C-281.44 134.20-276.76 129.52-276.76 123.91ZM-414.58 108.39C-414.77 108.39-415.51 107.46-415.51 106.15C-415.51 98.67-406.54 74.92-404.29 74.92C-403.92 74.92-403.92 75.29-403.92 75.85C-403.92 81.46-414.58 108.39-414.58 108.39ZM-294.34 169.35C-294.34 171.60-296.39 173.84-298.64 174.03C-298.64 172.91-299.01 171.97-299.39 171.04C-304.62 158.13-312.10 142.43-320.89 127.09C-318.46 127.28-316.03 127.65-313.79 128.03C-306.12 142.05-299.57 155.89-294.71 167.48C-294.52 168.05-294.34 168.79-294.34 169.35ZM-354.37 104.09L-357.17 104.09C-367.08 104.09-378.49 104.28-389.71 105.21C-387.28 91.94-384.28 83.33-380.73 78.29C-372.69 78.85-363.53 89.51-354.37 104.09ZM-398.68 106.15C-396.07 93.99-393.07 86.33-389.33 82.21C-392.33 88.76-394.01 96.99-395.50 105.77C-396.63 105.96-397.56 105.96-398.68 106.15ZM-402.05 128.78C-400.74 128.59-399.62 128.40-398.31 128.21C-399.25 136.82-398.87 147.48-400.55 155.14C-401.49 159.63-402.61 161.50-405.04 162.25C-403.36 155.14-403.55 145.98-402.99 139.06C-402.80 135.51-402.42 131.95-402.05 128.78ZM-334.17 104.84C-334.92 103.72-335.48 102.41-336.23 101.29C-342.21 91.19-348.19 82.21-354.55 75.85C-357.73 72.68-361.10 69.87-364.84 68.37C-371.01 63.14-376.81 59.40-382.60 57.72C-381.29 56.97-380.17 56.78-379.24 56.78C-374.94 56.78-369.51 58.84-363.34 63.33C-351.00 72.11-336.97 90.63-327.25 105.40C-329.49 105.21-331.93 105.03-334.17 104.84ZM-298.27 69.87C-298.27 91.38-281.81 103.16-262.55 111.76C-246.65 121.30-225.52 126.91-209.81 133.45C-204.20 137.19-200.65 141.68-200.65 147.29C-200.65 156.64-206.07 160.19-214.12 160.19C-240.11 160.19-295.09 123.54-295.09 123.54C-300.70 123.54-305.37 128.21-305.37 133.82C-305.37 145.61-298.27 155.33-287.42 162.62C-287.42 169.35-287.61 176.27-287.61 183.19C-287.61 185.25-287.42 190.67-285.74 190.67C-283.31 190.67-283.12 187.49-283.12 186.00C-283.12 178.89-283.49 171.79-283.87 164.68C-280.69 166.55-277.32 168.42-273.58 169.92C-257.50 180.20-233.75 185.44-212.43 185.44C-185.50 185.44-162.13 177.02-162.13 158.70C-162.13 141.49-175.59 132.14-192.42 124.66C-206.26 116.06-225.90 110.82-242.17 103.72C-252.45 97.36-259.56 88.94-259.56 76.79C-259.56 69.50-255.44 66.88-249.46 66.88C-246.65 66.88-243.10 67.81-239.55 69.12C-224.77 78.29-210.75 91.19-210.75 91.19C-202.15 91.19-199.34 72.30-199.34 66.13C-199.34 62.02-200.28 59.21-202.15 59.21C-204.20 59.21-207.38 62.76-211.50 71.74C-217.11 66.13-251.14 43.69-274.89 43.69C-288.17 43.69-298.27 54.72-298.27 69.87ZM-271.71 47.24C-267.97 47.24-267.60 48.18-267.60 50.05C-267.60 50.42-267.97 50.61-268.91 50.61C-272.27 50.61-271.52 50.42-273.77 50.42L-274.33 50.42C-280.69 50.61-288.35 50.98-288.35 66.50C-288.35 67.25-288.17 68.75-288.17 70.06C-288.17 71.93-288.35 73.61-289.48 73.61C-290.97 73.61-291.53 64.82-291.53 63.14C-291.53 51.92-284.80 47.24-272.09 47.24ZM-265.17 76.79C-265.17 82.77-263.48 88.20-261.05 92.68C-267.78 87.07-272.09 79.97-272.09 70.43C-272.09 63.14-267.97 60.33-261.99 60.33C-259.74 60.33-257.13 60.89-254.32 61.83C-261.05 63.33-265.17 69.50-265.17 76.79ZM-177.65 139.62C-171.29 144.86-167.74 150.47-167.74 158.70C-167.74 163.00-169.42 166.36-172.98 169.54C-181.02 176.83-196.54 179.83-212.43 179.83C-212.62 179.83-222.16 179.64-227.02 179.08L-224.96 179.08C-198.03 179.08-174.66 170.48-174.66 152.15C-174.66 147.29-175.78 143.36-177.65 139.62ZM-142.49 33.59C-142.49 34.53-143.43 35.28-144.55 35.65C-151.10 37.33-167.55 44.44-172.79 57.53C-173.35 59.02-175.22 60.89-176.34 60.89C-177.09 60.89-177.46 60.15-177.46 58.65L-177.46 58.46C-170.54 40.51-154.46 32.10-144.55 32.10C-143.43 32.10-142.49 32.66-142.49 33.59ZM-89.57 111.01C-89.57 113.44-92.00 115.87-94.44 115.87C-98.55 115.87-102.66 116.06-106.78 116.81L-106.78 114.00C-106.22 114.00-105.84 113.82-105.28 113.82C-100.61 113.82-96.68 110.64-95.37 106.34C-92.00 106.71-89.57 107.46-89.57 111.01ZM-83.96 111.01C-83.96 104.47-88.83 101.29-95.18 100.73C-96.49 95.49-101.92 93.06-108.27 93.06C-116.69 93.06-120.05 94.18-133.52 94.18C-140.06 94.18-145.86 93.43-150.54 91.94C-152.22 89.32-153.15 86.14-153.15 82.21C-153.15 68.00-140.81 56.97-125.29 54.16C-125.29 54.91-125.10 55.66-125.10 56.41C-125.10 62.02-120.43 66.69-114.82 66.69L-113.88 66.69C-112.57 70.99-108.65 74.36-103.97 74.36C-98.36 74.36-93.50 69.50-93.50 63.89C-93.50 49.11-98.92 36.96-110.70 33.59C-114.63 28.36-120.24 25.18-128.28 25.18C-158.20 25.18-184.94 46.12-184.94 74.73C-184.94 90.44-175.03 102.97-162.13 109.33C-161.19 110.26-159.89 111.20-158.76 112.13C-168.11 119.99-178.02 131.21-178.02 146.91C-178.02 161.31-170.54 169.92-159.51 174.96C-150.54 184.50-134.83 187.87-118.18 187.87C-91.82 187.87-69.00 184.50-48.62 180.76C-41.70 180.39-35.53 174.40-35.53 167.48C-35.53 160.75-40.95 154.96-47.87 154.21C-50.12 149.72-54.79 146.54-60.40 146.54C-65.45 146.54-67.69 147.48-72.56 148.60C-88.08 151.96-109.40 159.63-129.03 159.63C-134.64 159.63-140.62 159.44-145.67 158.32C-146.05 157.20-146.42 155.89-146.42 154.39C-146.42 138.31-128.66 127.28-110.33 123.17L-110.33 135.69C-110.33 137.75-110.14 143.17-108.46 143.17C-106.03 143.17-105.84 140.00-105.84 138.50C-105.84 133.08-106.03 127.65-106.40 122.42C-102.29 121.67-98.18 121.48-94.44 121.48C-88.83 121.48-83.96 116.62-83.96 111.01ZM-110.14 114.19L-110.14 117.56C-122.67 120.17-134.45 125.60-141.75 132.52C-147.73 138.13-152.03 145.61-152.03 154.39L-152.03 156.08C-155.21 154.21-157.27 151.22-157.27 146.91C-157.27 127.65-131.65 115.87-110.14 114.19ZM-46.38 160.19C-43.20 161.31-41.14 164.31-41.14 167.48C-41.14 171.22-44.69 174.96-48.81 175.15C-48.99 175.15-49.37 175.34-49.56 175.34C-69.75 179.08-92.19 182.26-118.18 182.26C-125.48 182.26-132.40 181.51-138.57 180.01C-135.39 180.20-132.21 180.39-129.03 180.39C-102.66 180.39-79.85 177.02-59.47 173.28C-52.55 172.91-46.56 167.11-46.38 160.19ZM-106.40 42.01C-101.35 46.31-99.11 54.16-99.11 63.89C-99.11 66.32-101.54 68.75-103.97 68.75C-106.22 68.75-108.27 66.69-108.65 64.63C-106.22 62.76-104.53 59.77-104.53 56.41C-104.53 51.17-105.09 46.31-106.40 42.01ZM-158.76 82.21C-158.76 84.27-158.58 86.14-158.20 88.01C-161.94 84.83-164.19 80.53-164.19 74.73C-164.19 58.09-147.17 45.93-128.28 45.93C-126.23 45.93-126.23 47.06-125.85 48.55C-142.12 51.36-158.76 62.76-158.76 82.21ZM-2.24 51.54C14.96 49.67 34.41 48.37 57.41 47.99C64.51 47.80 70.69 41.82 70.69 34.53L70.69 33.59L72.74 33.59C76.86 33.59 80.60 37.33 80.60 41.45C80.60 45.56 77.04 49.30 72.93 49.30C43.01 49.86 18.70 51.54-2.24 54.72ZM-21.69 54.16C-16.27 53.23-10.66 52.67-4.86 51.92L-4.86 55.10C-9.54 55.85-14.21 56.59-18.51 57.53C-19.26 56.22-20.38 55.10-21.69 54.16ZM-39.08 40.14C-38.90 40.51-40.58 41.45-43.38 42.57C-51.99 46.12-70.31 51.73-72.00 51.73L-72.18 51.73C-72.18 51.54-72.37 51.36-72.37 51.17C-72.37 48.55-63.95 46.12-61.71 45.00C-55.73 42.57-49.56 40.32-45.63 39.20C-44.69 39.02-43.57 38.83-42.45 38.83C-40.95 38.83-39.46 39.20-39.08 40.14ZM-36.09 100.16C-36.09 93.81-35.53 86.89-35.16 82.96C-34.97 80.72-33.66 77.35-31.79 77.35C-31.42 77.35-31.23 79.22-31.23 82.21C-31.23 91.94-33.10 112.32-33.66 112.32C-35.90 112.32-36.09 108.02-36.09 104.09ZM-104.91 73.61C-96.12 91.38-88.08 98.48-83.22 98.48C-80.04 98.48-77.98 95.30-77.98 89.88C-77.98 87.64-78.35 84.83-79.10 81.84C-65.26 76.23-51.99 71.74-37.77 67.81C-38.15 101.66-41.51 129.71-41.51 162.62C-41.51 168.79-36.28 174.03-30.11 174.03C-24.50 174.03-19.64 169.54-18.89 164.12C-16.64 147.85-16.08 132.89-16.08 117.93C-16.08 99.98-17.02 82.40-17.02 62.95C-13.09 62.20-9.16 61.46-5.05 60.89C-5.24 67.25-5.61 73.61-5.61 80.16C-5.61 82.21-5.42 87.64-3.74 87.64C-1.31 87.64-1.12 84.46-1.12 82.96C-1.12 75.29-1.50 67.81-1.87 60.33C18.89 57.15 42.82 55.47 72.93 54.91C80.04 54.72 86.21 48.74 86.21 41.45C86.21 34.15 80.04 27.98 72.74 27.98L68.82 27.98C66.38 23.87 62.08 21.06 57.22 21.06L57.03 21.06C-19.45 22.37-58.34 38.08-102.66 55.66C-106.22 57.15-109.02 61.08-109.02 65.38C-109.02 68.75-107.53 71.74-104.91 73.61ZM-80.78 76.42C-81.53 74.55-82.09 72.49-83.03 70.43C-67.69 64.82-52.55 60.33-35.53 56.78C-36.65 58.28-37.40 60.15-37.59 62.02C-52.55 65.94-66.39 70.81-80.78 76.42ZM27.68 92.50C35.72 134.95 27.30 172.72 71.43 172.72C80.97 172.72 92.56 170.10 102.85 166.55C103.04 175.34 105.09 182.63 110.89 185.81C110.89 188.24 110.70 190.86 110.70 193.48C110.70 195.53 110.89 200.96 112.57 200.96C115.00 200.96 115.19 197.78 115.19 196.28C115.19 193.29 115.19 190.30 115.00 187.31C115.75 187.49 116.50 187.49 117.25 187.49C119.49 192.36 123.42 195.53 130.34 195.53C130.90 195.53 131.46 195.35 132.02 195.35C146.05 193.85 144.36 178.89 146.61 164.31C147.17 160.38 147.54 155.89 147.54 151.03C147.54 119.61 135.57 72.30 120.80 72.30C120.43 72.30 120.05 72.30 119.49 72.49C116.31 67.44 112.57 64.26 108.83 64.26C106.40 64.26 99.48 67.44 99.48 72.49C99.48 73.05 99.67 73.61 99.86 74.36C104.53 87.82 105.28 97.92 105.28 109.89C105.28 116.25 105.09 123.17 105.09 131.21C105.09 131.58 104.16 140.56 103.60 149.91C98.55 152.34 93.50 154.39 88.45 154.39C46.38 154.39 65.82 80.16 37.96 80.16C32.16 80.16 27.49 84.64 27.49 90.63C27.49 91.19 27.49 91.94 27.68 92.50ZM110.52 103.34C110.52 103.34 102.66 74.17 102.66 70.99C102.66 70.81 102.66 70.62 102.85 70.62C104.53 70.62 112.57 93.25 112.57 100.16C112.57 102.22 112.20 103.53 111.08 103.53C110.89 103.53 110.70 103.34 110.52 103.34ZM31.04 88.20C31.04 86.51 32.35 85.20 34.03 85.20C35.72 85.20 37.03 86.51 37.03 88.20C37.03 89.88 35.72 91.19 34.03 91.19C32.35 91.19 31.04 89.88 31.04 88.20ZM123.23 186.75C133.70 183.38 132.58 169.54 134.64 156.26C135.20 152.34 135.39 148.04 135.39 143.17C135.39 122.60 130.53 95.12 122.86 78.66C127.16 82.96 129.78 88.01 132.77 96.61C138.19 112.32 141.93 134.39 141.93 151.03C141.93 155.70 141.56 159.82 141.00 163.37C140.06 170.10 139.50 179.64 137.82 184.50C136.70 187.87 135.01 189.92 130.34 189.92C126.79 189.92 124.54 188.80 123.23 186.75ZM187.56 56.78ZM220.47 168.79C225.33 168.79 230.01 165.24 230.76 159.63C235.99 116.06 237.30 100.54 246.47 59.77C246.65 59.02 246.65 58.28 246.65 57.53C246.65 52.85 243.10 47.24 236.93 47.24C235.81 43.32 232.63 39.76 227.58 39.76C221.59 39.76 216.92 46.87 213.55 57.72C210.37 67.63 207.01 83.15 204.39 99.23C195.04 86.14 186.81 73.05 174.28 52.85C173.72 43.13 170.92 35.65 162.50 33.97C160.26 29.10 156.33 26.30 149.60 26.30C134.08 26.30 133.33 42.38 133.33 57.34C133.33 99.04 143.99 151.22 154.46 182.07C155.58 185.44 159.14 187.12 163.06 187.49C164.37 192.36 167.93 194.97 173.72 194.97C179.71 194.97 185.69 191.61 185.69 185.62C185.69 184.50 185.50 183.38 185.13 182.26C176.34 157.39 172.04 118.49 172.04 89.88C172.04 89.88 172.23 89.69 172.23 89.13C177.65 95.86 183.26 102.22 188.68 107.64C188.68 118.68 188.50 129.34 188.50 140.56C188.50 142.61 188.68 148.04 190.37 148.04C192.80 148.04 192.98 144.86 192.98 143.36C192.98 132.14 192.05 121.48 191.49 110.45C195.23 114.00 198.78 116.99 201.96 119.05C201.40 125.41 200.84 131.39 200.84 136.82C200.84 149.72 202.89 159.07 207.94 160.75C209.07 161.13 210.00 161.31 211.12 161.31L212.06 161.31C213.55 166.18 215.61 168.79 220.47 168.79ZM138.94 60.15C138.94 52.29 139.69 41.07 141.37 36.96C141.93 35.28 142.68 34.34 143.62 34.34C143.99 34.34 144.36 34.53 144.55 34.71C144.55 34.71 141.56 68.00 139.88 68.00C139.13 68.00 138.94 64.45 138.94 60.15ZM220.85 47.06C220.85 45.19 222.34 43.69 224.21 43.69C226.08 43.69 227.58 45.19 227.58 47.06C227.58 48.93 226.08 50.42 224.21 50.42C222.34 50.42 220.85 48.93 220.85 47.06ZM173.72 189.36C170.36 189.36 169.23 188.05 169.05 187.68C169.05 187.49 168.67 187.12 168.67 186.93C172.97 185.62 176.34 182.63 176.34 178.14C176.34 177.02 176.15 175.90 175.78 174.78C166.99 149.91 162.69 111.01 162.69 82.40C162.69 82.21 162.88 80.16 163.25 76.98L167.18 82.59C166.99 85.20 166.80 87.26 166.62 88.38C166.62 89.13 166.43 89.32 166.43 89.88C166.43 119.05 170.73 158.13 179.89 184.13C180.08 184.69 180.08 185.25 180.08 185.62C180.08 187.87 177.09 189.36 173.72 189.36ZM217.29 159.26C219.35 157.76 221.03 155.14 221.41 152.15C226.64 108.77 227.95 93.25 236.93 52.85C239.17 52.85 241.04 55.28 241.04 57.53C241.04 57.90 240.86 58.28 240.86 58.65C232.81 94.18 230.94 111.20 227.02 143.55C226.46 148.41 225.90 153.46 225.15 159.07C224.77 161.87 222.72 163.18 220.47 163.18C218.42 163.18 218.23 162.62 217.29 159.26ZM265.54 33.59C265.54 34.53 264.60 35.28 263.48 35.65C256.94 37.33 240.48 44.44 235.25 57.53C234.68 59.02 232.81 60.89 231.69 60.89C230.94 60.89 230.57 60.15 230.57 58.65L230.57 58.46C237.49 40.51 253.57 32.10 263.48 32.10C264.60 32.10 265.54 32.66 265.54 33.59ZM318.46 111.01C318.46 113.44 316.03 115.87 313.60 115.87C309.48 115.87 305.37 116.06 301.26 116.81L301.26 114.00C301.82 114.00 302.19 113.82 302.75 113.82C307.43 113.82 311.35 110.64 312.66 106.34C316.03 106.71 318.46 107.46 318.46 111.01ZM324.07 111.01C324.07 104.47 319.21 101.29 312.85 100.73C311.54 95.49 306.12 93.06 299.76 93.06C291.35 93.06 287.98 94.18 274.52 94.18C267.97 94.18 262.17 93.43 257.50 91.94C255.82 89.32 254.88 86.14 254.88 82.21C254.88 68.00 267.22 56.97 282.74 54.16C282.74 54.91 282.93 55.66 282.93 56.41C282.93 62.02 287.61 66.69 293.22 66.69L294.15 66.69C295.46 70.99 299.39 74.36 304.06 74.36C309.67 74.36 314.53 69.50 314.53 63.89C314.53 49.11 309.11 36.96 297.33 33.59C293.40 28.36 287.79 25.18 279.75 25.18C249.83 25.18 223.09 46.12 223.09 74.73C223.09 90.44 233.00 102.97 245.90 109.33C246.84 110.26 248.15 111.20 249.27 112.13C239.92 119.99 230.01 131.21 230.01 146.91C230.01 161.31 237.49 169.92 248.52 174.96C257.50 184.50 273.21 187.87 289.85 187.87C316.22 187.87 339.03 184.50 359.41 180.76C366.33 180.39 372.50 174.40 372.50 167.48C372.50 160.75 367.08 154.96 360.16 154.21C357.92 149.72 353.24 146.54 347.63 146.54C342.58 146.54 340.34 147.48 335.48 148.60C319.96 151.96 298.64 159.63 279.00 159.63C273.39 159.63 267.41 159.44 262.36 158.32C261.99 157.20 261.61 155.89 261.61 154.39C261.61 138.31 279.38 127.28 297.70 123.17L297.70 135.69C297.70 137.75 297.89 143.17 299.57 143.17C302.00 143.17 302.19 140.00 302.19 138.50C302.19 133.08 302.00 127.65 301.63 122.42C305.74 121.67 309.86 121.48 313.60 121.48C319.21 121.48 324.07 116.62 324.07 111.01ZM297.89 114.19L297.89 117.56C285.36 120.17 273.58 125.60 266.29 132.52C260.30 138.13 256.00 145.61 256.00 154.39L256.00 156.08C252.82 154.21 250.77 151.22 250.77 146.91C250.77 127.65 276.39 115.87 297.89 114.19ZM361.66 160.19C364.84 161.31 366.89 164.31 366.89 167.48C366.89 171.22 363.34 174.96 359.23 175.15C359.04 175.15 358.67 175.34 358.48 175.34C338.28 179.08 315.84 182.26 289.85 182.26C282.56 182.26 275.64 181.51 269.47 180.01C272.65 180.20 275.82 180.39 279.00 180.39C305.37 180.39 328.18 177.02 348.57 173.28C355.49 172.91 361.47 167.11 361.66 160.19ZM301.63 42.01C306.68 46.31 308.92 54.16 308.92 63.89C308.92 66.32 306.49 68.75 304.06 68.75C301.82 68.75 299.76 66.69 299.39 64.63C301.82 62.76 303.50 59.77 303.50 56.41C303.50 51.17 302.94 46.31 301.63 42.01ZM249.27 82.21C249.27 84.27 249.46 86.14 249.83 88.01C246.09 84.83 243.85 80.53 243.85 74.73C243.85 58.09 260.86 45.93 279.75 45.93C281.81 45.93 281.81 47.06 282.18 48.55C265.91 51.36 249.27 62.76 249.27 82.21ZM320.14 69.87C320.14 91.38 336.60 103.16 355.86 111.76C371.76 121.30 392.89 126.91 408.59 133.45C414.20 137.19 417.76 141.68 417.76 147.29C417.76 156.64 412.33 160.19 404.29 160.19C378.30 160.19 323.32 123.54 323.32 123.54C317.71 123.54 313.04 128.21 313.04 133.82C313.04 145.61 320.14 155.33 330.99 162.62C330.99 169.35 330.80 176.27 330.80 183.19C330.80 185.25 330.99 190.67 332.67 190.67C335.10 190.67 335.29 187.49 335.29 186.00C335.29 178.89 334.92 171.79 334.54 164.68C337.72 166.55 341.09 168.42 344.83 169.92C360.91 180.20 384.66 185.44 405.98 185.44C432.90 185.44 456.28 177.02 456.28 158.70C456.28 141.49 442.82 132.14 425.99 124.66C412.15 116.06 392.51 110.82 376.24 103.72C365.96 97.36 358.85 88.94 358.85 76.79C358.85 69.50 362.97 66.88 368.95 66.88C371.76 66.88 375.31 67.81 378.86 69.12C393.63 78.29 407.66 91.19 407.66 91.19C416.26 91.19 419.07 72.30 419.07 66.13C419.07 62.02 418.13 59.21 416.26 59.21C414.20 59.21 411.03 62.76 406.91 71.74C401.30 66.13 367.27 43.69 343.52 43.69C330.24 43.69 320.14 54.72 320.14 69.87ZM346.70 47.24C350.44 47.24 350.81 48.18 350.81 50.05C350.81 50.42 350.44 50.61 349.50 50.61C346.14 50.61 346.88 50.42 344.64 50.42L344.08 50.42C337.72 50.61 330.05 50.98 330.05 66.50C330.05 67.25 330.24 68.75 330.24 70.06C330.24 71.93 330.05 73.61 328.93 73.61C327.44 73.61 326.88 64.82 326.88 63.14C326.88 51.92 333.61 47.24 346.32 47.24ZM353.24 76.79C353.24 82.77 354.93 88.20 357.36 92.68C350.62 87.07 346.32 79.97 346.32 70.43C346.32 63.14 350.44 60.33 356.42 60.33C358.67 60.33 361.28 60.89 364.09 61.83C357.36 63.33 353.24 69.50 353.24 76.79ZM440.76 139.62C447.12 144.86 450.67 150.47 450.67 158.70C450.67 163.00 448.99 166.36 445.43 169.54C437.39 176.83 421.87 179.83 405.98 179.83C405.79 179.83 396.25 179.64 391.39 179.08L393.45 179.08C420.38 179.08 443.75 170.48 443.75 152.15C443.75 147.29 442.63 143.36 440.76 139.62Z"/></g>
</svg>